<svg width="1126" height="633" viewBox="0 0 1126 633" fill="none" xmlns="http://www.w3.org/2000/svg">
<path d="M90.2444 597.288C90.2444 597.288 85.2472 594.609 85.2472 581.217V49.9972C85.2472 14.2849 71.1373 0 53.7939 0L34.3928 27.677C29.6895 8.03527 18.5192 0 5.2912 0L0 24.9986L0.293956 27.677C0.293956 27.677 5.2912 30.3555 5.2912 43.7475V574.968C5.2912 610.68 19.695 624.965 35.2747 624.965L42.0357 599.966L41.7417 597.288C41.7417 597.288 36.7445 594.609 36.7445 581.217V284.805L53.7939 260.7V574.968C53.7939 610.68 68.1977 624.965 83.7774 624.965L90.5384 599.966L90.2444 597.288ZM36.7445 256.236V49.9972C36.7445 46.426 36.7445 43.7475 36.4505 41.0691L49.9725 28.5698C51.4423 30.3555 53.7939 34.8195 53.7939 43.7475V233.023L36.7445 256.236Z" fill="#F17070"/>
<path d="M193.028 597.288C193.028 597.288 188.031 594.609 188.031 581.217V49.9972C188.031 14.2849 173.921 0 156.577 0L136.588 28.5698C132.179 8.03526 120.715 0 107.487 0L102.196 24.9986L102.49 27.677C102.49 27.677 107.487 30.3555 107.487 43.7475V574.968C107.487 610.68 121.891 624.965 137.47 624.965L144.231 599.966L143.937 597.288C143.937 597.288 138.94 594.609 138.94 581.217V49.9972C138.94 47.3188 138.94 43.7475 138.646 41.0691L152.756 28.5698C154.226 30.3555 156.577 34.8195 156.577 43.7475V574.968C156.577 610.68 170.981 624.965 186.561 624.965L193.322 599.966L193.028 597.288Z" fill="#F17070"/>
<path d="M254.938 0L238.182 23.213C232.891 7.14247 222.309 0 210.256 0L204.965 24.9986L205.259 27.677C205.259 27.677 210.256 30.3555 210.256 43.7475V581.217C210.256 594.609 205.259 597.288 205.259 597.288L204.965 599.966L211.726 624.965C225.248 624.965 234.361 617.822 238.77 601.752L254.938 624.965C269.93 624.965 286.391 611.573 286.391 574.968V49.9972C286.391 14.2849 272.281 0 254.938 0ZM254.938 43.7475V581.217C254.938 590.145 252.586 594.609 251.116 596.395L241.122 587.467C241.416 583.896 241.71 579.432 241.71 574.968V49.9972C241.71 45.5331 241.416 41.0691 241.122 37.4979L251.116 28.5698C252.586 30.3555 254.938 34.8195 254.938 43.7475Z" fill="#F17070"/>
<path d="M390.789 599.966L390.495 597.288C390.495 597.288 385.498 594.609 385.498 581.217V49.9972C385.498 14.2849 371.388 0 354.044 0L348.753 24.9986L349.047 27.677C349.047 27.677 354.044 30.3555 354.044 43.7475V341.052L346.99 347.302C345.52 345.516 343.756 341.052 343.756 333.017V49.9972C343.756 14.2849 329.646 0 312.303 0L307.012 24.9986L307.306 27.677C307.306 27.677 312.303 30.3555 312.303 43.7475V326.767C312.303 362.48 326.707 376.764 342.286 376.764L354.044 359.801V574.968C354.044 581.217 354.338 586.574 355.22 591.038L341.11 603.537C339.641 601.752 337.877 597.288 337.877 589.252V458.01C337.877 422.298 323.767 408.013 306.424 408.013L301.132 433.011L301.426 435.69C301.426 435.69 306.424 438.368 306.424 451.76V583.003C306.424 618.715 320.828 633 336.407 633L357.866 602.644C363.157 617.822 373.446 624.965 384.028 624.965L390.789 599.966Z" fill="#F17070"/>
<path d="M513.173 581.217L513.467 327.66C513.467 304.447 509.646 294.626 501.415 286.591L475.841 259.807C475.841 259.807 470.844 257.128 470.844 243.736L471.138 49.9972C471.138 44.6403 470.844 40.1763 470.256 36.6051L479.074 28.5698C480.544 30.3555 482.896 34.8195 482.896 43.7475V183.918C482.896 219.63 497.3 233.915 512.879 233.915C515.231 225.88 518.465 213.381 519.64 208.917L519.346 206.238C519.346 206.238 514.349 203.56 514.349 190.168V49.9972C514.349 14.2849 500.239 0 482.896 0L467.316 22.3202C461.731 6.24967 451.443 0 439.684 0L434.393 24.9986L434.687 27.677C434.687 27.677 439.684 30.3555 439.684 43.7475L439.39 244.629C439.39 268.735 444.388 278.556 451.443 285.698C454.676 289.269 472.607 303.554 477.017 308.911C479.368 311.59 482.014 316.946 482.014 330.338L481.72 574.968C481.72 578.539 481.72 582.11 482.014 584.788L470.256 595.502C468.786 593.716 467.022 589.252 467.022 581.217V408.905C467.022 373.193 452.912 358.908 435.569 358.908L430.278 383.907L430.572 386.585C430.572 386.585 435.569 389.264 435.569 402.656V574.968C435.569 610.68 449.973 624.965 465.552 624.965L484.366 598.18C489.069 616.929 500.239 624.965 511.704 624.965L518.465 599.966L518.171 597.288C518.171 597.288 513.173 594.609 513.173 581.217Z" fill="#F17070"/>
<path d="M621.044 597.288C621.044 597.288 616.046 594.609 616.046 581.217V49.9972C616.046 14.2849 601.937 0 584.593 0L579.302 24.9986L579.596 27.677C579.596 27.677 584.593 30.3555 584.593 43.7475V229.451L566.956 259.807V49.9972C566.956 14.2849 552.846 0 535.503 0L530.211 24.9986L530.505 27.677C530.505 27.677 535.503 30.3555 535.503 43.7475V574.968C535.503 610.68 549.906 624.965 565.486 624.965L572.247 599.966L571.953 597.288C571.953 597.288 566.956 594.609 566.956 581.217V295.519L584.593 265.164V574.968C584.593 610.68 598.997 624.965 614.577 624.965C616.928 616.929 620.162 604.43 621.338 599.966L621.044 597.288Z" fill="#F17070"/>
<path d="M667.374 49.9972V581.217C667.374 594.609 672.371 597.288 672.371 597.288L672.665 599.966L665.904 624.965C650.324 624.965 635.921 610.68 635.921 574.968V43.7475C635.921 30.3555 630.923 27.677 630.923 27.677L630.629 24.9986L635.921 0C653.264 0 667.374 14.2849 667.374 49.9972Z" fill="#F17070"/>
<path d="M821.992 597.288C821.992 597.288 816.995 594.609 816.995 581.217V49.9972C816.995 14.2849 802.885 0 785.542 0L765.553 28.5698C761.143 8.03526 749.679 0 736.451 0L716.462 28.5698C712.053 8.03526 700.589 0 687.361 0L682.069 24.9986L682.363 27.677C682.363 27.677 687.361 30.3555 687.361 43.7475V574.968C687.361 610.68 701.764 624.965 717.344 624.965L724.105 599.966L723.811 597.288C723.811 597.288 718.814 594.609 718.814 581.217V49.9972C718.814 47.3188 718.814 43.7475 718.52 41.0691L732.63 28.5698C734.099 30.3555 736.451 34.8195 736.451 43.7475V574.968C736.451 610.68 751.149 624.965 766.435 624.965L773.196 599.966L772.902 597.288C772.902 597.288 767.904 594.609 767.904 581.217V49.9972C767.904 47.3188 767.904 43.7475 767.61 41.0691L781.72 28.5698C783.19 30.3555 785.542 34.8195 785.542 43.7475V574.968C785.542 610.68 799.946 624.965 815.525 624.965L822.286 599.966L821.992 597.288Z" fill="#F17070"/>
<path d="M973.85 597.288C973.85 597.288 968.853 594.609 968.853 581.217V49.9972C968.853 14.2849 954.743 0 937.4 0L917.411 28.5698C913.001 8.03526 901.537 0 888.309 0L868.32 28.5698C863.911 8.03526 852.447 0 839.219 0L833.927 24.9986L834.221 27.677C834.221 27.677 839.219 30.3555 839.219 43.7475V574.968C839.219 610.68 853.622 624.965 869.202 624.965L875.963 599.966L875.669 597.288C875.669 597.288 870.672 594.609 870.672 581.217V49.9972C870.672 47.3188 870.672 43.7475 870.378 41.0691L884.488 28.5698C885.958 30.3555 888.309 34.8195 888.309 43.7475V574.968C888.309 610.68 903.007 624.965 918.293 624.965L925.054 599.966L924.76 597.288C924.76 597.288 919.762 594.609 919.762 581.217V49.9972C919.762 47.3188 919.762 43.7475 919.469 41.0691L933.578 28.5698C935.048 30.3555 937.4 34.8195 937.4 43.7475V574.968C937.4 610.68 951.804 624.965 967.383 624.965L974.144 599.966L973.85 597.288Z" fill="#F17070"/>
<path d="M1020.18 49.9972V581.217C1020.18 594.609 1025.18 597.288 1025.18 597.288L1025.47 599.966L1018.71 624.965C1003.13 624.965 988.725 610.68 988.725 574.968V43.7475C988.725 30.3555 983.728 27.677 983.728 27.677L983.434 24.9986L988.725 0C1006.07 0 1020.18 14.2849 1020.18 49.9972Z" fill="#F17070"/>
<path d="M1125.71 597.288C1125.71 597.288 1120.71 594.609 1120.71 581.217V49.9972C1120.71 14.2849 1106.6 0 1089.26 0L1069.27 28.5698C1064.86 8.03526 1053.39 0 1040.16 0L1034.87 24.9986L1035.17 27.677C1035.17 27.677 1040.16 30.3555 1040.16 43.7475V574.968C1040.16 610.68 1054.57 624.965 1070.15 624.965L1076.91 599.966L1076.62 597.288C1076.62 597.288 1071.62 594.609 1071.62 581.217V49.9972C1071.62 47.3188 1071.62 43.7475 1071.32 41.0691L1085.43 28.5698C1086.9 30.3555 1089.26 34.8195 1089.26 43.7475V574.968C1089.26 610.68 1103.66 624.965 1119.24 624.965L1126 599.966L1125.71 597.288Z" fill="#F17070"/>
</svg>
